Coordinates
version=1
nRows=10
nColumns=22
inDegrees=yes

Units are S.I. units (second, meters, Newtons, ...)
If the header above contains a line with 'inDegrees', this indicates whether rotational values are in degrees (yes) or radians (no).

endheader
time	pelvis_tilt	pelvis_list	pelvis_rotation	pelvis_tx	pelvis_ty	pelvis_tz	hip_flexion_r	hip_adduction_r	hip_rotation_r	knee_angle_r	ankle_angle_r	subtalar_angle_r	hip_flexion_l	hip_adduction_l	hip_rotation_l	knee_angle_l	ankle_angle_l	subtalar_angle_l	lumbar_extension	lumbar_bending	lumbar_rotation
      3.25000000	      1.46016082	     -9.43019798	    -81.56071521	      0.33324041	      0.93899913	      0.86080947	    -14.46524657	      3.60229010	      0.63798835	    -36.84751760	     -6.24395122	      6.89703168	     10.67660410	      0.55460544	     -4.99749437	    -23.39344863	     11.07655349	    -12.33656852	    -10.08989794	      0.94099948	     -5.35737181
      3.26000000	      1.64793709	     -9.41051406	    -81.64898919	      0.33564441	      0.93951180	      0.86792558	    -13.58511765	      3.12040689	      0.20574170	    -38.79779839	     -7.60740765	      7.78558549	     10.17129631	      0.83697663	     -5.19624525	    -23.44783959	     11.67327807	    -12.49345450	    -10.06203006	      0.76342532	     -5.42001769
      3.27000000	      1.82956190	     -9.39140241	    -81.74409346	      0.33792206	      0.93990762	      0.87474862	    -12.62919966	      2.64797214	     -0.17629713	    -40.80573693	     -8.60044306	      8.82450157	      9.70249274	      1.11319985	     -5.37009892	    -23.52726758	     12.25362262	    -12.66151296	    -10.06785855	      0.59155352	     -5.50746205
      3.28000000	      1.99967102	     -9.38278022	    -81.84575230	      0.34005099	      0.94022432	      0.88127294	    -11.61735813	      2.20752458	     -0.47958756	    -42.82894853	     -9.18874500	      9.98196646	      9.26012506	      1.37939739	     -5.49251364	    -23.63213541	     12.82753171	    -12.85012276	    -10.11851591	      0.42995813	     -5.61644909
      3.29000000	      2.16226377	     -9.37825543	    -81.94288486	      0.34203936	      0.94046451	      0.88749238	    -10.54983141	      1.79660879	     -0.73123359	    -44.83116177	     -9.36089526	     11.13351300	      8.85992423	      1.63924796	     -5.57122723	    -23.77595389	     13.36320187	    -13.06465064	    -10.20479915	      0.27291822	     -5.76541844
      3.30000000	      2.29780790	     -9.39178213	    -82.04081191	      0.34388246	      0.94067911	      0.89342130	     -9.45625731	      1.44741296	     -0.91075748	    -46.75006669	     -9.18269074	     12.24616323	      8.47817907	      1.87418293	     -5.58402565	    -23.94003153	     13.89668696	    -13.31051743	    -10.33469788	      0.14425003	     -5.92978611
      3.31000000	      2.40756803	     -9.41868501	    -82.13711456	      0.34557719	      0.94087912	      0.89907674	     -8.34688712	      1.16234805	     -1.02169763	    -48.53795192	     -8.69309220	     13.25200347	      8.12220411	      2.08380913	     -5.54233026	    -24.13188811	     14.41991720	    -13.58291303	    -10.49985219	      0.04090344	     -6.12001597
      3.32000000	      2.47573353	     -9.46585697	    -82.23150055	      0.34712724	      0.94109530	      0.90447563	     -7.24475686	      0.96163479	     -1.06996436	    -50.14449522	     -7.94725783	     14.13150797	      7.78760682	      2.24729563	     -5.45886169	    -24.35718172	     14.92611583	    -13.87109720	    -10.70009415	     -0.01879577	     -6.33046190
      3.33000000	      2.48169720	     -9.53651360	    -82.32772664	      0.34852746	      0.94136242	      0.90963869	     -6.16684939	      0.87482145	     -1.04481806	    -51.52848798	     -7.00925918	     14.92753150	      7.46395466	      2.34074954	     -5.33668604	    -24.60185510	     15.43628104	    -14.17102140	    -10.93273754	     -0.01073941	     -6.55053484
      3.34000000	      2.41954979	     -9.62882533	    -82.43036588	      0.34977858	      0.94169020	      0.91459235	     -5.12201181	      0.90500300	     -0.95716716	    -52.66947448	     -5.90925729	     15.61931008	      7.14888496	      2.35422178	     -5.19727521	    -24.86210793	     15.93422651	    -14.46344111	    -11.18975326	      0.07104041	     -6.77397781
